<?xml version="1.0" ?>
<!DOCTYPE svg  PUBLIC '-//W3C//DTD SVG 1.1//EN'  'http://www.w3.org/Graphics/SVG/1.1/DTD/svg11.dtd'>
<!-- Uploaded to: SVG Repo, www.svgrepo.com, Generator: SVG Repo Mixer Tools -->
<svg fill="#000000" width="800px" height="800px" viewBox="0 0 512 512" version="1.1" xml:space="preserve" xmlns="http://www.w3.org/2000/svg" xmlns:xlink="http://www.w3.org/1999/xlink">
<g id="_x35_10_x2C__Chip_x2C__cpu_x2C__microchip_x2C__processor_x2C__technology">
<g>
<path d="M256.79,217.365c10.659,0,20.324,4.321,27.332,11.331    c7.011,7.009,11.332,16.675,11.332,27.362c0,10.658-4.321,20.324-11.332,27.333c-7.008,7.009-16.673,11.331-27.332,11.331    c-10.688,0-20.355-4.322-27.363-11.331c-7.009-7.009-11.331-16.675-11.331-27.333c0-10.688,4.322-20.354,11.331-27.362    C236.435,221.687,246.102,217.365,256.79,217.365 M279.041,233.777c-5.693-5.694-13.58-9.229-22.251-9.229    c-8.704,0-16.587,3.534-22.282,9.229c-5.694,5.693-9.228,13.578-9.228,22.281c0,8.673,3.534,16.559,9.228,22.252    c5.694,5.694,13.578,9.229,22.282,9.229c8.671,0,16.558-3.534,22.251-9.229c5.694-5.693,9.229-13.579,9.229-22.252    C288.27,247.355,284.735,239.471,279.041,233.777z M209.891,176.861c1.342,0,2.774-0.876,3.211-2.016    c1.199-2.394-0.612-5.168-3.211-5.168h-7.184c-1.344,0-2.774,0.875-3.213,2.014c-1.197,2.396,0.614,5.17,3.213,5.17H209.891z     M238.566,176.861c1.373,0,2.774-0.876,3.241-2.016c1.198-2.394-0.642-5.168-3.241-5.168h-7.154c-1.373,0-2.774,0.875-3.243,2.014    c-1.167,2.396,0.644,5.17,3.243,5.17H238.566z M267.272,176.861c1.372,0,2.774-0.876,3.241-2.016    c1.198-2.394-0.643-5.168-3.241-5.168h-7.154c-1.372,0-2.774,0.875-3.243,2.014c-1.197,2.396,0.644,5.17,3.243,5.17H267.272z     M295.979,176.861c1.372,0,2.774-0.876,3.241-2.016c1.198-2.394-0.643-5.168-3.241-5.168h-7.154c-1.372,0-2.774,0.875-3.241,2.014    c-1.198,2.396,0.643,5.17,3.241,5.17H295.979z M324.685,176.861c1.344,0,2.774-0.876,3.213-2.016    c1.196-2.394-0.614-5.168-3.213-5.168H317.5c-1.342,0-2.773,0.875-3.211,2.014c-1.198,2.396,0.613,5.17,3.211,5.17H324.685z     M335.957,187.111c0,1.373,0.875,2.773,2.015,3.242c2.396,1.196,5.169-0.643,5.169-3.242v-7.154c0-1.373-0.905-2.774-2.014-3.242    c-2.396-1.196-5.17,0.643-5.17,3.242V187.111z M335.957,215.816c0,1.373,0.875,2.775,2.015,3.242    c2.396,1.197,5.169-0.642,5.169-3.242v-7.153c0-1.373-0.905-2.774-2.014-3.242c-2.396-1.196-5.17,0.643-5.17,3.242V215.816z     M335.957,244.523c0,1.373,0.875,2.773,2.015,3.242c2.396,1.197,5.169-0.643,5.169-3.242v-7.154c0-1.373-0.905-2.774-2.014-3.242    c-2.396-1.197-5.17,0.643-5.17,3.242V244.523z M335.957,273.229c0,1.345,0.875,2.775,2.015,3.213    c2.396,1.197,5.169-0.613,5.169-3.213v-7.183c0-1.343-0.905-2.774-2.014-3.213c-2.396-1.196-5.17,0.613-5.17,3.213V273.229z     M335.957,301.936c0,1.344,0.875,2.774,2.015,3.213c2.396,1.196,5.169-0.613,5.169-3.213v-7.184c0-1.344-0.905-2.774-2.014-3.213    c-2.396-1.197-5.17,0.613-5.17,3.213V301.936z M335.957,330.642c0,1.343,0.875,2.774,2.015,3.212    c2.396,1.197,5.169-0.613,5.169-3.212v-7.184c0-1.343-0.905-2.774-2.014-3.212c-2.396-1.197-5.17,0.613-5.17,3.212V330.642z     M319.02,335.227c-1.373,0-2.773,0.876-3.242,2.015c-1.167,2.395,0.643,5.169,3.242,5.169h7.183c1.345,0,2.746-0.906,3.213-2.016    c1.196-2.395-0.612-5.168-3.213-5.168H319.02z M290.313,335.227c-1.344,0-2.773,0.876-3.213,2.015    c-1.196,2.395,0.613,5.169,3.213,5.169h7.183c1.344,0,2.774-0.906,3.213-2.016c1.197-2.395-0.612-5.168-3.213-5.168H290.313z     M261.606,335.227c-1.343,0-2.772,0.876-3.211,2.015c-1.197,2.395,0.612,5.169,3.211,5.169h7.184c1.345,0,2.774-0.906,3.213-2.016    c1.197-2.395-0.612-5.168-3.213-5.168H261.606z M232.9,335.227c-1.342,0-2.744,0.876-3.211,2.015    c-1.197,2.395,0.642,5.169,3.211,5.169h7.184c1.374,0,2.774-0.906,3.243-2.016c1.197-2.395-0.642-5.168-3.243-5.168H232.9z     M204.224,335.227c-1.372,0-2.774,0.876-3.241,2.015c-1.199,2.395,0.642,5.169,3.241,5.169h7.154c1.374,0,2.774-0.906,3.243-2.016    c1.197-2.395-0.644-5.168-3.243-5.168H204.224z M175.519,335.227c-1.373,0-2.774,0.876-3.241,2.015    c-1.198,2.395,0.642,5.169,3.241,5.169h7.154c1.373,0,2.774-0.906,3.243-2.016c1.197-2.395-0.644-5.168-3.243-5.168H175.519z     M177.592,311.602c0-1.344-0.877-2.773-2.016-3.213c-2.394-1.196-5.167,0.613-5.167,3.213v7.184c0,1.344,0.875,2.773,2.014,3.213    c2.396,1.197,5.169-0.613,5.169-3.213V311.602z M177.592,282.895c0-1.343-0.877-2.773-2.016-3.211    c-2.394-1.197-5.167,0.613-5.167,3.211v7.185c0,1.373,0.875,2.774,2.014,3.241c2.396,1.168,5.169-0.642,5.169-3.241V282.895z     M177.592,254.219c0-1.373-0.877-2.773-2.016-3.242c-2.394-1.197-5.167,0.643-5.167,3.242v7.154c0,1.373,0.875,2.774,2.014,3.242    c2.396,1.196,5.169-0.644,5.169-3.242V254.219z M177.592,225.514c0-1.374-0.877-2.775-2.016-3.242    c-2.394-1.198-5.167,0.642-5.167,3.242v7.153c0,1.372,0.875,2.774,2.014,3.242c2.396,1.196,5.169-0.644,5.169-3.242V225.514z     M177.592,196.807c0-1.373-0.877-2.773-2.016-3.242c-2.394-1.197-5.167,0.643-5.167,3.242v7.184c0,1.344,0.875,2.745,2.014,3.213    c2.396,1.197,5.169-0.613,5.169-3.213V196.807z M172.16,170.203l-0.204,0.146c-0.526,0.351-0.963,0.817-1.168,1.343l-0.263,0.761    c-0.116,0.351-0.146,0.729-0.116,1.051v1.781c0,1.343,0.875,2.774,2.014,3.212c1.869,0.936,3.971,0.029,4.789-1.635h3.973    c1.342,0,2.774-0.876,3.211-2.016c1.197-2.394-0.612-5.168-3.211-5.168h-6.922C173.532,169.619,172.774,169.823,172.16,170.203z     M365.335,147.483h-39.833l36.883-36.911c0.672-0.643,1.052-1.549,1.052-2.541V52.078c2.132-0.611,4.03-1.752,5.548-3.27    c2.309-2.336,3.768-5.549,3.768-9.111s-1.459-6.775-3.768-9.111l-0.263-0.234c-2.308-2.189-5.431-3.533-8.848-3.533    c-3.563,0-6.805,1.432-9.14,3.768c-2.309,2.307-3.768,5.549-3.768,9.111s1.43,6.775,3.768,9.111    c1.518,1.518,3.416,2.658,5.548,3.27v54.492l-40.942,40.913h-25.815l44.418-44.417c0.643-0.643,1.052-1.548,1.052-2.541V89.283    c0-1.986-1.607-3.592-3.593-3.592c-1.986,0-3.592,1.605-3.592,3.592v9.782l-8.265,8.265l-16.967-16.967V69.075    c2.132-0.613,4.03-1.752,5.549-3.271c2.307-2.337,3.768-5.578,3.768-9.111c0-3.563-1.461-6.805-3.768-9.111    c-2.336-2.336-5.577-3.797-9.111-3.797c-3.563,0-6.805,1.461-9.11,3.797l-0.235,0.263c-2.218,2.308-3.563,5.432-3.563,8.849    c0,3.533,1.46,6.746,3.798,9.111c1.488,1.488,3.387,2.627,5.519,3.271v22.777c0,0.993,0.379,1.869,1.051,2.541l17.988,18.019    l-35.072,35.071h-19.36V56.021c2.103-0.613,4.001-1.752,5.519-3.271c2.338-2.337,3.768-5.549,3.768-9.112    c0-3.562-1.43-6.773-3.768-9.109c-2.335-2.338-5.548-3.768-9.11-3.768c-3.562,0-6.775,1.43-9.11,3.768    c-2.337,2.336-3.768,5.548-3.768,9.109c0,3.563,1.43,6.775,3.768,9.112c1.518,1.519,3.387,2.657,5.519,3.271v68.654    l-13.375-13.374V71.294c0-1.985-1.606-3.592-3.592-3.592s-3.592,1.606-3.592,3.592v41.497c0,0.992,0.409,1.898,1.051,2.541    l19.507,19.507v12.645h-18.66l-35.102-35.071l18.018-18.019c0.642-0.672,1.051-1.548,1.051-2.541V69.075    c2.103-0.644,4.001-1.782,5.521-3.3c2.306-2.336,3.766-5.549,3.766-9.082c0-3.417-1.342-6.541-3.532-8.849l-0.233-0.263    c-2.337-2.336-5.578-3.797-9.112-3.797c-3.562,0-6.803,1.461-9.11,3.797c-2.336,2.307-3.796,5.549-3.796,9.111    c0,3.533,1.46,6.774,3.796,9.111c1.49,1.519,3.386,2.657,5.519,3.271v21.288l-16.967,16.967l-8.263-8.265v-9.782    c0-1.986-1.607-3.592-3.592-3.592c-1.986,0-3.592,1.605-3.592,3.592v11.242c0,0.993,0.409,1.898,1.051,2.541l44.417,44.417    h-25.814l-40.914-40.913V52.078c2.104-0.611,4-1.752,5.521-3.27c2.335-2.336,3.767-5.549,3.767-9.111s-1.461-6.805-3.767-9.111    c-2.337-2.336-5.579-3.768-9.113-3.768c-3.562,0-6.773,1.432-9.11,3.768c-2.335,2.336-3.795,5.578-3.795,9.111    c0,3.563,1.46,6.775,3.795,9.111c1.49,1.518,3.388,2.658,5.521,3.27v55.953c0,0.992,0.409,1.898,1.051,2.541l36.911,36.911    h-39.861v80.132h-1.139l-48.74-48.739c-0.67-0.642-1.548-1.051-2.541-1.051H84.524c-1.957,0-3.564,1.606-3.564,3.592    s1.607,3.592,3.564,3.592h9.783l8.263,8.265L85.603,210.24H64.314c-0.612-2.133-1.751-4.03-3.269-5.52    c-2.337-2.336-5.548-3.797-9.112-3.797c-3.562,0-6.775,1.461-9.111,3.797c-2.335,2.307-3.767,5.548-3.767,9.111    c0,3.533,1.432,6.774,3.767,9.081l0.263,0.263c2.306,2.19,5.431,3.533,8.848,3.533c3.534,0,6.775-1.459,9.112-3.766    c1.518-1.52,2.657-3.418,3.269-5.52h22.778c0.994,0,1.899-0.409,2.541-1.051l18.018-18.019l35.393,35.394    c0.702,0.7,1.605,1.051,2.541,1.051h2.628v17.989H51.263c-0.614-2.103-1.753-4.001-3.271-5.52    c-2.337-2.307-5.548-3.768-9.083-3.768c-3.562,0-6.805,1.431-9.14,3.768c-2.308,2.337-3.768,5.577-3.768,9.111    c0,3.562,1.46,6.804,3.768,9.11c2.335,2.337,5.578,3.768,9.14,3.768c3.534,0,6.775-1.431,9.111-3.768    c1.49-1.488,2.628-3.387,3.243-5.519h68.655l-13.375,13.375H66.564c-1.986,0-3.592,1.605-3.592,3.592    c0,1.985,1.605,3.591,3.592,3.591h41.467c0.993,0,1.898-0.408,2.541-1.051l19.507-19.507h18.135v17.346h-2.628    c-0.936,0-1.839,0.321-2.541,1.022l-35.393,35.393l-18.018-17.988c-0.642-0.671-1.547-1.051-2.541-1.051H64.314    c-0.612-2.133-1.751-4.03-3.299-5.549c-2.308-2.307-5.548-3.767-9.083-3.767c-3.417,0-6.542,1.343-8.848,3.533l-0.263,0.263    c-2.335,2.307-3.767,5.549-3.767,9.082c0,3.563,1.432,6.805,3.767,9.141c2.336,2.307,5.549,3.767,9.111,3.767    c3.564,0,6.775-1.46,9.112-3.767c1.518-1.519,2.657-3.417,3.269-5.549h21.289l16.967,16.967l-8.263,8.264h-9.783    c-1.957,0-3.564,1.607-3.564,3.593s1.607,3.592,3.564,3.592h11.271c0.993,0,1.871-0.409,2.541-1.052l48.74-48.738h1.139v80.131    h39.744l-36.794,36.796c-0.642,0.643-1.051,1.548-1.051,2.54v55.98c-2.132,0.613-4.031,1.753-5.521,3.242    c-2.335,2.337-3.795,5.578-3.795,9.111c0,3.563,1.46,6.774,3.795,9.111c2.308,2.336,5.548,3.796,9.11,3.796    c3.534,0,6.775-1.46,9.113-3.796c2.306-2.307,3.767-5.549,3.767-9.111c0-3.533-1.432-6.774-3.767-9.111    c-1.52-1.489-3.417-2.629-5.521-3.242v-54.49l40.826-40.826h25.786l-44.3,44.3c-0.642,0.644-1.051,1.549-1.051,2.541v11.243    c0,1.986,1.606,3.592,3.592,3.592c1.984,0,3.592-1.605,3.592-3.592v-9.753l8.263-8.265l16.967,16.938v21.317    c-2.132,0.613-4.029,1.752-5.519,3.242c-2.336,2.335-3.796,5.577-3.796,9.14c0,3.533,1.46,6.774,3.796,9.111    c2.307,2.308,5.548,3.768,9.11,3.768c3.534,0,6.775-1.46,9.112-3.797l0.233-0.263c2.19-2.307,3.532-5.432,3.532-8.819    c0-3.563-1.459-6.774-3.766-9.111c-1.52-1.519-3.418-2.657-5.521-3.271v-22.808c0-0.963-0.409-1.868-1.051-2.54l-18.018-17.989    l34.985-34.984h18.777v12.558l-19.507,19.478c-0.643,0.672-1.051,1.548-1.051,2.541v41.496c0,1.986,1.605,3.592,3.592,3.592    s3.592-1.605,3.592-3.592v-40.008l13.375-13.374v68.655c-2.132,0.613-4.001,1.752-5.519,3.271    c-2.337,2.335-3.768,5.548-3.768,9.11s1.43,6.775,3.768,9.111c2.335,2.336,5.548,3.767,9.11,3.767c3.563,0,6.775-1.431,9.11-3.767    c2.338-2.336,3.768-5.549,3.768-9.111s-1.43-6.775-3.768-9.11l-0.233-0.205c-1.489-1.402-3.301-2.481-5.285-3.066v-91.346h19.448    l34.984,34.984l-17.988,17.989c-0.672,0.672-1.051,1.577-1.051,2.54v22.808c-2.132,0.613-4.03,1.752-5.519,3.271    c-2.338,2.337-3.798,5.549-3.798,9.111c0,3.388,1.345,6.513,3.563,8.819l0.235,0.263c2.306,2.337,5.548,3.797,9.11,3.797    c3.534,0,6.775-1.46,9.111-3.768c2.307-2.337,3.768-5.578,3.768-9.111c0-3.563-1.461-6.805-3.768-9.14    c-1.519-1.49-3.417-2.629-5.549-3.242v-21.317l16.967-16.938l8.265,8.265v9.753c0,1.986,1.605,3.592,3.592,3.592    c1.985,0,3.593-1.605,3.593-3.592v-11.243c0-0.992-0.409-1.897-1.052-2.541l-44.301-44.3h25.814l40.826,40.826v54.49    c-2.132,0.613-4.03,1.753-5.548,3.242c-2.338,2.337-3.768,5.578-3.768,9.111c0,3.563,1.459,6.805,3.768,9.111    c2.335,2.336,5.576,3.796,9.14,3.796c3.532,0,6.775-1.46,9.11-3.796c2.309-2.307,3.768-5.549,3.768-9.111    c0-3.533-1.459-6.774-3.768-9.111c-1.518-1.489-3.416-2.629-5.548-3.242v-55.98c0-0.992-0.38-1.897-1.052-2.54l-36.795-36.796    h39.745v-79.723l48.329,48.33c0.643,0.643,1.548,1.052,2.541,1.052h11.243c1.986,0,3.592-1.606,3.592-3.592    s-1.605-3.593-3.592-3.593h-9.753l-8.266-8.264l16.967-16.967h21.289c0.612,2.132,1.753,4.03,3.271,5.549    c2.308,2.307,5.549,3.767,9.111,3.767c3.563,0,6.774-1.46,9.11-3.767c2.337-2.336,3.768-5.578,3.768-9.141    c0-3.533-1.46-6.775-3.768-9.082l-0.262-0.263c-2.308-2.19-5.433-3.533-8.849-3.533c-3.563,0-6.775,1.46-9.111,3.767    c-1.518,1.519-2.658,3.416-3.271,5.549h-22.778c-0.993,0-1.897,0.38-2.541,1.051l-18.018,17.988l-35.394-35.393    c-0.7-0.701-1.635-1.022-2.541-1.051h-1.079v-17.317h16.586l19.479,19.507c0.67,0.643,1.576,1.051,2.539,1.051h41.498    c1.984,0,3.592-1.605,3.592-3.591c0-1.986-1.607-3.592-3.592-3.592H405.43l-13.346-13.375h68.625    c0.614,2.132,1.753,4.03,3.271,5.519c2.337,2.337,5.548,3.768,9.11,3.768c3.563,0,6.805-1.431,9.112-3.768    c2.336-2.307,3.796-5.549,3.796-9.11c0-3.534-1.46-6.774-3.796-9.111c-2.337-2.337-5.549-3.768-9.112-3.768    c-3.532,0-6.745,1.461-9.11,3.796c-1.49,1.52-2.629,3.389-3.241,5.491h-95.404v-17.989h1.079c0.906,0,1.841-0.351,2.541-1.051    l35.394-35.394l18.018,18.019c0.644,0.642,1.548,1.051,2.541,1.051h22.34c0.293,3.036,1.665,5.752,3.709,7.797    c2.336,2.336,5.549,3.767,9.111,3.767c3.416,0,6.541-1.343,8.849-3.533l0.262-0.233c2.308-2.336,3.768-5.549,3.768-9.111    s-1.431-6.775-3.768-9.111c-2.336-2.336-5.547-3.768-9.11-3.768c-3.563,0-6.804,1.432-9.111,3.768    c-0.963,0.936-1.753,2.044-2.365,3.242h-22.194l-16.967-16.967l8.266-8.265h9.753c1.986,0,3.592-1.606,3.592-3.592    s-1.605-3.592-3.592-3.592h-11.243c-0.993,0-1.898,0.409-2.541,1.051l-48.329,48.33V147.483z" style="fill-rule:evenodd;clip-rule:evenodd;"/>
</g>
</g>
<g id="Layer_1"/>
</svg>